<?xml version="1.0" encoding="UTF-8" standalone="no"?>
<svg width="100" height="100" xmlns="http://www.w3.org/2000/svg">
  <!-- Background square with rounded corners -->
  <rect width="100" height="100" rx="15" fill="#28a745" />
  
  <!-- Stylized "G" letter -->
  <path d="M 65,50 C 65,58.28 58.28,65 50,65 41.72,65 35,58.28 35,50 35,41.72 41.72,35 50,35 55,35 59.5,37.5 62,41.5 L 55,45 C 53.5,42.5 51,41 50,41 c -5,0 -9,4 -9,9 0,5 4,9 9,9 3,0 6,-1.5 7.5,-4 H 50 V 50 h 15 V 65 H 59 V 60 C 56,63 53,65 50,65" fill="white" />
  
  <!-- Sun/circle above G -->
  <circle cx="75" cy="25" r="12" fill="#ffeb3b" stroke="white" stroke-width="2" />
  
  <!-- Horizontal lines representing a field/agricultural rows -->
  <rect x="15" y="75" width="70" height="3" rx="1.5" fill="#8bc34a" />
  <rect x="20" y="82" width="60" height="3" rx="1.5" fill="#8bc34a" />
  <rect x="25" y="89" width="50" height="3" rx="1.5" fill="#8bc34a" />
</svg> 